<svg xmlns="http://www.w3.org/2000/svg" width="960" height="400" viewBox="0 0 960 400" font-family="-apple-system, BlinkMacSystemFont, 'Segoe UI', Helvetica, Arial, sans-serif" role="img"><title>Butterfly diagram of the fast Walsh-Hadamard transform</title><rect width="100%" height="100%" rx="12" fill="#fcfcfb"/><text x="24.0" y="34.0" font-size="16" font-weight="700" fill="#0b0b0b" text-anchor="start">Fast Walsh–Hadamard transform on 4 coordinates</text><text x="24.0" y="56.0" font-size="13" font-weight="400" fill="#52514e" text-anchor="start">Each pass turns a pair (a, b) into (a + b, a − b). Solid line = add, dashed line = subtract.</text><line x1="156.0" y1="127.0" x2="330.0" y2="127.0" stroke="#52514e" stroke-width="1.4" stroke-linecap="round"/><line x1="156.0" y1="193.0" x2="330.0" y2="127.0" stroke="#52514e" stroke-width="1.4" stroke-linecap="round"/><line x1="156.0" y1="127.0" x2="330.0" y2="193.0" stroke="#52514e" stroke-width="1.4" stroke-linecap="round"/><line x1="156.0" y1="193.0" x2="330.0" y2="193.0" stroke="#52514e" stroke-width="1.4" stroke-linecap="round" stroke-dasharray="5 4"/><line x1="156.0" y1="259.0" x2="330.0" y2="259.0" stroke="#52514e" stroke-width="1.4" stroke-linecap="round"/><line x1="156.0" y1="325.0" x2="330.0" y2="259.0" stroke="#52514e" stroke-width="1.4" stroke-linecap="round"/><line x1="156.0" y1="259.0" x2="330.0" y2="325.0" stroke="#52514e" stroke-width="1.4" stroke-linecap="round"/><line x1="156.0" y1="325.0" x2="330.0" y2="325.0" stroke="#52514e" stroke-width="1.4" stroke-linecap="round" stroke-dasharray="5 4"/><line x1="416.0" y1="127.0" x2="590.0" y2="127.0" stroke="#52514e" stroke-width="1.4" stroke-linecap="round"/><line x1="416.0" y1="259.0" x2="590.0" y2="127.0" stroke="#52514e" stroke-width="1.4" stroke-linecap="round"/><line x1="416.0" y1="127.0" x2="590.0" y2="259.0" stroke="#52514e" stroke-width="1.4" stroke-linecap="round"/><line x1="416.0" y1="259.0" x2="590.0" y2="259.0" stroke="#52514e" stroke-width="1.4" stroke-linecap="round" stroke-dasharray="5 4"/><line x1="416.0" y1="193.0" x2="590.0" y2="193.0" stroke="#52514e" stroke-width="1.4" stroke-linecap="round"/><line x1="416.0" y1="325.0" x2="590.0" y2="193.0" stroke="#52514e" stroke-width="1.4" stroke-linecap="round"/><line x1="416.0" y1="193.0" x2="590.0" y2="325.0" stroke="#52514e" stroke-width="1.4" stroke-linecap="round"/><line x1="416.0" y1="325.0" x2="590.0" y2="325.0" stroke="#52514e" stroke-width="1.4" stroke-linecap="round" stroke-dasharray="5 4"/><line x1="676.0" y1="127.0" x2="820.0" y2="127.0" stroke="#52514e" stroke-width="1.4" stroke-linecap="round"/><line x1="676.0" y1="193.0" x2="820.0" y2="193.0" stroke="#52514e" stroke-width="1.4" stroke-linecap="round"/><line x1="676.0" y1="259.0" x2="820.0" y2="259.0" stroke="#52514e" stroke-width="1.4" stroke-linecap="round"/><line x1="676.0" y1="325.0" x2="820.0" y2="325.0" stroke="#52514e" stroke-width="1.4" stroke-linecap="round"/><text x="113.0" y="94.0" font-size="13" font-weight="600" fill="#0b0b0b" text-anchor="middle">shuffled input</text><rect x="70" y="110" width="86" height="34" rx="6" fill="#fcfcfb" stroke="#2a78d6" stroke-width="2"/><text x="113.0" y="132.0" font-size="14" font-weight="600" fill="#0b0b0b" text-anchor="middle">+0.4</text><rect x="70" y="176" width="86" height="34" rx="6" fill="#fcfcfb" stroke="#2a78d6" stroke-width="2"/><text x="113.0" y="198.0" font-size="14" font-weight="600" fill="#0b0b0b" text-anchor="middle">+0.8</text><rect x="70" y="242" width="86" height="34" rx="6" fill="#fcfcfb" stroke="#2a78d6" stroke-width="2"/><text x="113.0" y="264.0" font-size="14" font-weight="600" fill="#0b0b0b" text-anchor="middle">-0.4</text><rect x="70" y="308" width="86" height="34" rx="6" fill="#fcfcfb" stroke="#2a78d6" stroke-width="2"/><text x="113.0" y="330.0" font-size="14" font-weight="600" fill="#0b0b0b" text-anchor="middle">+0.2</text><text x="373.0" y="94.0" font-size="13" font-weight="600" fill="#0b0b0b" text-anchor="middle">pass 1  (h = 1)</text><rect x="330" y="110" width="86" height="34" rx="6" fill="#fcfcfb" stroke="#52514e" stroke-width="2"/><text x="373.0" y="132.0" font-size="14" font-weight="600" fill="#0b0b0b" text-anchor="middle">+1.2</text><rect x="330" y="176" width="86" height="34" rx="6" fill="#fcfcfb" stroke="#52514e" stroke-width="2"/><text x="373.0" y="198.0" font-size="14" font-weight="600" fill="#0b0b0b" text-anchor="middle">-0.4</text><rect x="330" y="242" width="86" height="34" rx="6" fill="#fcfcfb" stroke="#52514e" stroke-width="2"/><text x="373.0" y="264.0" font-size="14" font-weight="600" fill="#0b0b0b" text-anchor="middle">-0.2</text><rect x="330" y="308" width="86" height="34" rx="6" fill="#fcfcfb" stroke="#52514e" stroke-width="2"/><text x="373.0" y="330.0" font-size="14" font-weight="600" fill="#0b0b0b" text-anchor="middle">-0.6</text><text x="633.0" y="94.0" font-size="13" font-weight="600" fill="#0b0b0b" text-anchor="middle">pass 2  (h = 2)</text><rect x="590" y="110" width="86" height="34" rx="6" fill="#fcfcfb" stroke="#52514e" stroke-width="2"/><text x="633.0" y="132.0" font-size="14" font-weight="600" fill="#0b0b0b" text-anchor="middle">+1.0</text><rect x="590" y="176" width="86" height="34" rx="6" fill="#fcfcfb" stroke="#52514e" stroke-width="2"/><text x="633.0" y="198.0" font-size="14" font-weight="600" fill="#0b0b0b" text-anchor="middle">-1.0</text><rect x="590" y="242" width="86" height="34" rx="6" fill="#fcfcfb" stroke="#52514e" stroke-width="2"/><text x="633.0" y="264.0" font-size="14" font-weight="600" fill="#0b0b0b" text-anchor="middle">+1.4</text><rect x="590" y="308" width="86" height="34" rx="6" fill="#fcfcfb" stroke="#52514e" stroke-width="2"/><text x="633.0" y="330.0" font-size="14" font-weight="600" fill="#0b0b0b" text-anchor="middle">+0.2</text><text x="863.0" y="94.0" font-size="13" font-weight="600" fill="#0b0b0b" text-anchor="middle">× 1/√4  =  y</text><rect x="820" y="110" width="86" height="34" rx="6" fill="#fcfcfb" stroke="#2a78d6" stroke-width="2"/><text x="863.0" y="132.0" font-size="14" font-weight="600" fill="#0b0b0b" text-anchor="middle">+0.5</text><rect x="820" y="176" width="86" height="34" rx="6" fill="#fcfcfb" stroke="#2a78d6" stroke-width="2"/><text x="863.0" y="198.0" font-size="14" font-weight="600" fill="#0b0b0b" text-anchor="middle">-0.5</text><rect x="820" y="242" width="86" height="34" rx="6" fill="#fcfcfb" stroke="#2a78d6" stroke-width="2"/><text x="863.0" y="264.0" font-size="14" font-weight="600" fill="#0b0b0b" text-anchor="middle">+0.7</text><rect x="820" y="308" width="86" height="34" rx="6" fill="#fcfcfb" stroke="#2a78d6" stroke-width="2"/><text x="863.0" y="330.0" font-size="14" font-weight="600" fill="#0b0b0b" text-anchor="middle">+0.1</text><text x="58.0" y="132.0" font-size="13" font-weight="400" fill="#52514e" text-anchor="end">c₁</text><text x="58.0" y="198.0" font-size="13" font-weight="400" fill="#52514e" text-anchor="end">c₂</text><text x="58.0" y="264.0" font-size="13" font-weight="400" fill="#52514e" text-anchor="end">c₃</text><text x="58.0" y="330.0" font-size="13" font-weight="400" fill="#52514e" text-anchor="end">c₄</text></svg>
